<?xml version="1.0" encoding="utf-8"?>
<!-- Generator: Adobe Illustrator 18.1.1, SVG Export Plug-In . SVG Version: 6.00 Build 0)  -->
<svg version="1.1" id="Layer_1" xmlns="http://www.w3.org/2000/svg" xmlns:xlink="http://www.w3.org/1999/xlink" x="0px" y="0px"
	 viewBox="0 0 30 30" enable-background="new 0 0 30 30" xml:space="preserve">
<g>
	<path d="M8.9,23.9L8.9,23.9l-2.3-0.4c-0.8-0.4-1.5-0.9-2.1-1.7C4,21,3.7,19.9,3.7,18.5c0-1.9,0.5-3.7,1.3-5.4
		c0.8-1.7,1.7-3.1,2.7-4.3l2.4-2.5H14c-0.9,0.7-1.7,1.6-2.4,2.6c-0.7,1-1.3,2.1-1.6,3.1c-0.4,1-0.6,2-0.6,2.8c1.2,0,2.2,0.4,3,1.2
		c0.9,0.9,1.3,1.9,1.3,3.2c0,1.4-0.5,2.5-1.5,3.3C11.3,23.5,10.2,24,8.9,23.9L8.9,23.9z M21.2,24l-2.4-0.5c-0.8-0.4-1.4-0.9-2-1.7
		C16.3,21,16,19.9,16,18.5c0-1.9,0.5-3.7,1.3-5.4C18.1,11.4,19,10,20,8.8l2.4-2.5h3.9L23.8,9l-1.6,3.1c-0.4,1-0.6,2-0.6,2.8
		c1.3,0,2.3,0.4,3.1,1.2c0.9,0.9,1.3,1.9,1.3,3.2c0,1.4-0.5,2.5-1.5,3.3C23.6,23.5,22.5,24,21.2,24z"/>
</g>
<g>
</g>
<g>
</g>
<g>
</g>
<g>
</g>
<g>
</g>
<g>
</g>
</svg>
